<svg width="256" height="256" viewBox="0 0 256 256" fill="none" xmlns="http://www.w3.org/2000/svg">
<path d="M127.856 1.40625C58.0193 1.40625 1.40625 58.0193 1.40625 127.856C1.40625 197.693 58.0193 254.306 127.856 254.306C197.693 254.306 254.306 197.693 254.306 127.856C254.306 58.0193 197.693 1.40625 127.856 1.40625ZM138.163 160.91C129.438 160.91 121.233 156.378 118.426 151.022C118.426 151.022 114.107 167.463 113.062 171.493C111.117 178.973 102.488 193.652 97.157 198.106L96.4742 192.009C95.7211 185.194 95.0411 174.719 96.772 167.281C98.3372 160.559 106.871 124.473 106.871 124.473C106.871 124.473 104.294 119.314 104.294 111.688C104.294 99.7141 111.235 90.7727 119.876 90.7727C127.224 90.7727 130.773 96.2887 130.773 102.903C130.773 110.291 126.069 121.34 123.641 131.577C121.612 140.147 127.941 147.138 136.393 147.138C151.699 147.138 163.465 131.001 163.465 107.703C163.465 87.0831 148.647 72.6678 127.494 72.6678C102.991 72.6678 88.609 91.0481 88.609 110.041C88.609 117.442 91.4611 125.381 95.0186 129.694C95.7211 130.545 95.8251 131.293 95.6171 132.164C94.9624 134.884 93.5096 140.734 93.2258 141.932C92.8493 143.508 91.9782 143.842 90.3456 143.084C79.5889 138.076 72.8645 122.351 72.8645 109.721C72.8645 82.5534 92.602 57.6062 129.767 57.6062C159.64 57.6062 182.856 78.8948 182.856 107.343C182.854 137.022 164.139 160.91 138.163 160.91Z" fill="black" style="fill:black;fill-opacity:1;"/>
</svg>
